<svg xmlns="http://www.w3.org/2000/svg" width="58.666" height="32" viewBox="0 0 58.666 32">
  <g id="bmw_i_logo" transform="translate(-279 -264)">
    <g id="BMW_i_Grey-Colour_RGB" transform="translate(279 264)">
      <g id="Group_16" data-name="Group 16" transform="translate(13.334 0)">
        <path id="Path_3" data-name="Path 3" d="M89.536,0,70.87,32H92.635a8.536,8.536,0,0,0,7.372-4.233L116.2,0ZM96.4,26.42A4.8,4.8,0,0,1,92.255,28.8H87l9.016-15.456a3.2,3.2,0,0,1,2.764-1.588h6.177ZM104.373,9.6H98.2l3.082-5.283h8.015l-2.156,3.7A3.2,3.2,0,0,1,104.373,9.6Z" transform="translate(-70.87)" fill="#d6d6d6"/>
      </g>
      <g id="Blau_x5F_Verlauf_x5F_hell_64_" transform="translate(0 0)">
        <path id="Path_4" data-name="Path 4" d="M32,0,13.334,32H0L16.2,4.233A8.531,8.531,0,0,1,23.567,0Z" transform="translate(0 0)" fill="#0066b1"/>
      </g>
    </g>
  </g>
</svg>
